<svg width="60" height="52" viewBox="0 0 60 52" fill="none" xmlns="http://www.w3.org/2000/svg">
<g id="Logo">
<path id="Vector 1" d="M40.8575 18.5241C37.9201 17.5492 36.0371 17.2918 32.3823 17.1947H29.8183H27.2966C23.6763 17.2174 21.8158 17.4905 18.8578 18.5241C23.855 22.0384 26.2418 24.228 29.8183 28.4945C33.8168 23.7764 36.2224 21.5653 40.8575 18.5241Z" fill="white"/>
<path id="Ellipse 1" d="M37.3124 7.69022C36.688 12.1953 34.2864 15.1532 29.7047 15.3804C26.2738 15.3804 22.3953 12.0846 22.097 7.69022C21.7093 1.9803 25.5031 0 29.7047 0C33.9063 0 38.0369 2.46239 37.3124 7.69022Z" fill="white"/>
<g id="Group 2">
<path id="Vector 2" d="M57.9306 15.4333C49.486 13.2032 43.7713 16.0944 33.2206 26.4272C42.9201 19.1348 48.3717 16.5841 57.1868 17.9798L57.9306 15.4333Z" fill="white"/>
<path id="Vector 3" d="M57.6848 21.9342L58.4946 19.3582C50.823 16.6306 41.8423 20.1273 30.2795 29.2162L30.5344 29.4128C42.4778 22.8222 48.6613 20.5303 57.6848 21.9342Z" fill="white"/>
<path id="Exclude" fill-rule="evenodd" clip-rule="evenodd" d="M30.0677 30.2987V49.3394C38.523 46.2348 42.3979 46.9608 48.1085 51.6838L52.5293 40.5957L54.5631 35.5037L54.5599 35.5026L59.5821 22.9059C49.3731 20.1374 42.5501 23.3051 30.0677 30.2987ZM54.5599 35.5026L50.7612 34.2573C50.2203 34.08 49.6202 34.3259 49.4208 34.8066C49.3456 34.9878 49.3381 35.1764 49.3868 35.3507L49.3169 35.3278C48.7761 35.1505 48.176 35.3964 47.9765 35.8771C47.777 36.3578 48.0537 36.8912 48.5946 37.0685L48.6867 37.0987C48.5563 37.1982 48.4518 37.3278 48.3881 37.4812C48.1886 37.9619 48.4653 38.4953 49.0061 38.6726L49.3414 38.7826C49.2171 38.8806 49.1175 39.0066 49.0559 39.1549C48.8565 39.6356 49.1332 40.169 49.674 40.3463L52.2868 41.2028L52.5293 40.5957L54.5599 35.5026Z" fill="white"/>
<g id="Group 1">
<rect id="Rectangle 6" width="6.74333" height="1.12531" rx="0.562654" transform="matrix(0.950241 0.311516 -0.383261 0.92364 50.0309 34.4163)" fill="white"/>
<rect id="Rectangle 8" width="6.74333" height="1.12531" rx="0.562654" transform="matrix(0.950241 0.311516 -0.383261 0.92364 48.9982 37.0908)" fill="white"/>
<rect id="Rectangle 9" width="5.02867" height="1.12531" rx="0.562654" transform="matrix(0.950241 0.311516 -0.383261 0.92364 49.6661 38.7645)" fill="white"/>
<rect id="Rectangle 7" width="8.2402" height="1.12531" rx="0.562654" transform="matrix(0.950241 0.311516 -0.383261 0.92364 48.5867 35.4868)" fill="white"/>
</g>
</g>
<g id="Group 3">
<path id="Vector 2_2" d="M1.65147 15.4333C10.0961 13.2032 15.8108 16.0944 26.3615 26.4272C16.662 19.1348 11.2104 16.5841 2.39525 17.9798L1.65147 15.4333Z" fill="white"/>
<path id="Vector 3_2" d="M1.89727 21.9342L1.08749 19.3582C8.75912 16.6306 17.7398 20.1273 29.3026 29.2162L29.0477 29.4128C17.1043 22.8222 10.9207 20.5303 1.89727 21.9342Z" fill="white"/>
<path id="Exclude_2" fill-rule="evenodd" clip-rule="evenodd" d="M29.5144 30.2987V49.3394C21.0591 46.2348 17.1842 46.9608 11.4736 51.6838L7.0337 40.5477L5.01905 35.5037L5.02224 35.5026L-1.33514e-05 22.9059C10.209 20.1374 17.0319 23.3051 29.5144 30.2987ZM5.02224 35.5026L8.82097 34.2573C9.36178 34.08 9.96189 34.3259 10.1614 34.8066C10.2365 34.9878 10.2441 35.1764 10.1953 35.3507L10.2652 35.3278C10.8061 35.1505 11.4062 35.3964 11.6056 35.8771C11.8051 36.3578 11.5284 36.8912 10.9876 37.0685L10.8954 37.0987C11.0258 37.1982 11.1304 37.3278 11.1941 37.4812C11.3935 37.9619 11.1168 38.4953 10.576 38.6726L10.2407 38.7826C10.365 38.8806 10.4647 39.0066 10.5262 39.1549C10.7257 39.6356 10.4489 40.169 9.90812 40.3463L7.29535 41.2028L7.0337 40.5477L5.02224 35.5026Z" fill="white"/>
<g id="Group 1_2">
<rect id="Rectangle 6_2" width="6.74333" height="1.12531" rx="0.562654" transform="matrix(-0.950241 0.311516 0.383261 0.92364 9.55109 34.4163)" fill="white"/>
<rect id="Rectangle 8_2" width="6.74333" height="1.12531" rx="0.562654" transform="matrix(-0.950241 0.311516 0.383261 0.92364 10.5838 37.0908)" fill="white"/>
<rect id="Rectangle 9_2" width="5.02867" height="1.12531" rx="0.562654" transform="matrix(-0.950241 0.311516 0.383261 0.92364 9.91595 38.7645)" fill="white"/>
<rect id="Rectangle 7_2" width="8.2402" height="1.12531" rx="0.562654" transform="matrix(-0.950241 0.311516 0.383261 0.92364 10.9954 35.4868)" fill="white"/>
</g>
</g>
</g>
</svg>
